<?xml version="1.0" standalone="no"?>
<!DOCTYPE svg PUBLIC "-//W3C//DTD SVG 20010904//EN"
 "http://www.w3.org/TR/2001/REC-SVG-20010904/DTD/svg10.dtd">
<svg version="1.0" xmlns="http://www.w3.org/2000/svg"
 width="300.000000pt" height="300.000000pt" viewBox="0 0 300.000000 300.000000"
 preserveAspectRatio="xMidYMid meet">
<metadata>
Created by potrace 1.14, written by Peter Selinger 2001-2017
</metadata>
<g transform="translate(0.000000,300.000000) scale(0.100000,-0.100000)"
fill="#000000" stroke="none">
<path d="M1065 2984 c-42 -21 -78 -77 -79 -122 -1 -33 -5 -38 -38 -50 -33 -11
-41 -10 -83 12 -52 26 -95 27 -143 2 -66 -34 -97 -118 -70 -186 14 -34 14 -35
-24 -71 -21 -19 -41 -49 -44 -65 -4 -24 -16 -35 -54 -52 -38 -17 -53 -32 -69
-65 -26 -53 -26 -80 -1 -134 23 -53 65 -79 128 -82 37 -1 56 4 86 24 23 15 45
23 56 20 10 -3 29 -8 41 -10 13 -3 27 -12 33 -22 14 -26 58 -64 85 -74 53 -21
148 8 171 51 7 14 22 18 59 17 38 0 60 6 90 26 32 22 45 25 70 17 17 -5 47 -7
67 -4 25 3 46 -2 69 -16 35 -22 80 -27 131 -16 24 5 34 2 50 -15 60 -67 170
-67 226 0 13 16 23 18 45 12 15 -4 37 -7 47 -5 11 1 27 -8 37 -20 24 -30 79
-56 118 -56 38 0 106 33 114 55 4 9 19 15 36 15 36 0 73 13 93 34 12 12 23 13
51 5 19 -5 45 -7 58 -5 13 3 29 5 36 5 27 2 83 64 94 104 15 56 4 100 -36 142
-22 24 -35 49 -38 73 -4 42 -18 72 -41 91 -10 9 -13 22 -9 42 15 75 -37 162
-105 176 -52 10 -54 10 -80 1 -30 -10 -72 0 -72 19 0 28 -31 73 -67 98 -84 56
-204 11 -228 -87 -8 -32 -32 -44 -40 -19 -7 22 -53 64 -85 78 -14 5 -44 8 -68
6 -35 -3 -48 1 -70 22 -57 53 -144 57 -201 9 -26 -21 -35 -24 -63 -16 -18 4
-48 5 -65 1 -23 -4 -36 -2 -45 8 -17 21 -76 43 -112 42 -17 0 -45 -7 -61 -15z"/>
<path d="M1210 2143 c-24 -13 -59 -23 -78 -23 -22 0 -46 -10 -70 -29 -81 -64
-198 -56 -267 18 -48 52 -57 54 -118 25 -50 -22 -55 -27 -51 -52 3 -15 11 -63
20 -107 8 -44 17 -98 20 -120 3 -22 12 -78 20 -125 8 -47 17 -101 20 -120 3
-19 12 -71 20 -115 8 -44 16 -97 19 -117 3 -21 12 -77 20 -125 9 -49 18 -104
21 -123 2 -19 9 -57 14 -85 5 -27 12 -66 15 -85 6 -45 13 -86 31 -185 8 -45
16 -96 19 -114 2 -18 6 -36 9 -38 3 -3 285 -6 627 -6 605 0 622 0 625 19 2 10
6 35 8 54 3 19 5 35 7 35 1 0 3 11 4 25 1 14 9 66 18 115 9 50 18 108 22 130
3 22 12 76 20 120 8 44 17 96 20 115 3 19 10 60 15 90 5 30 11 69 14 85 3 17
14 86 26 155 11 69 23 136 25 150 3 25 18 110 20 120 0 3 4 27 9 53 4 27 9 56
11 65 1 10 8 51 15 92 6 41 14 82 16 91 6 22 -29 31 -54 13 -10 -7 -40 -18
-65 -25 -26 -6 -47 -15 -47 -18 0 -12 -83 -49 -120 -54 -47 -5 -117 16 -149
47 -32 30 -68 35 -101 14 -80 -54 -164 -57 -239 -11 -37 24 -56 29 -96 27 -31
-1 -65 4 -90 16 -22 9 -67 19 -100 22 -49 3 -68 0 -105 -19z"/>
<path d="M1084 370 c-49 -11 -101 -47 -126 -88 -17 -28 -23 -52 -23 -99 0 -54
4 -66 31 -100 45 -55 87 -76 156 -79 89 -4 154 31 188 100 60 125 -13 251
-156 269 -22 2 -53 1 -70 -3z m110 -105 c31 -31 40 -58 32 -99 -12 -64 -74
-96 -134 -70 -53 22 -71 90 -41 150 25 48 104 59 143 19z"/>
<path d="M2390 373 c-44 -6 -97 -34 -110 -58 -20 -38 -19 -83 3 -111 23 -29
54 -45 117 -57 14 -3 26 -6 28 -8 1 -1 7 -2 12 -3 6 0 15 -8 20 -16 23 -38
-48 -52 -125 -25 -22 8 -41 15 -42 15 -4 0 -33 -59 -33 -68 0 -18 110 -45 158
-39 94 11 113 20 138 68 34 66 2 121 -84 145 -73 20 -112 35 -112 43 1 34 64
47 119 25 18 -8 35 -14 36 -14 5 0 35 62 35 71 0 17 -108 39 -160 32z"/>
<path d="M459 348 c0 -13 -1 -94 -2 -180 -2 -173 -4 -169 63 -158 l35 5 -3 83
c-1 47 2 81 7 78 5 -4 26 -34 46 -69 52 -88 70 -88 124 3 23 38 45 71 49 74 5
3 8 -35 7 -84 l-2 -88 39 -4 c22 -2 43 1 46 7 4 5 7 88 7 183 l1 172 -43 0
c-32 0 -46 -5 -51 -18 -14 -34 -107 -182 -114 -182 -4 0 -22 25 -40 56 -86
145 -85 144 -129 144 -34 0 -39 -3 -40 -22z"/>
<path d="M1345 333 c9 -21 43 -102 77 -180 l60 -141 45 -4 c24 -2 48 -1 53 2
7 5 43 84 147 328 l14 33 -51 -3 -51 -3 -35 -79 c-20 -44 -42 -96 -50 -115
l-16 -36 -48 115 -49 115 -56 3 -56 3 16 -38z"/>
<path d="M1760 191 l1 -179 46 -4 c36 -3 47 0 52 14 3 9 6 90 5 180 l-1 163
-51 3 -52 2 0 -179z"/>
<path d="M1938 358 c-4 -11 -3 -314 1 -343 1 -8 88 -10 272 -5 12 0 16 9 14
38 l-1 37 -85 1 c-96 0 -106 4 -104 36 1 21 7 23 81 28 l79 5 1 37 0 37 -78
-2 c-56 -1 -78 1 -79 11 -5 49 -9 47 87 50 l91 3 1 39 2 40 -139 0 c-102 0
-140 -3 -143 -12z"/>
</g>
</svg>
