<?xml version="1.0" standalone="no"?>
<!DOCTYPE svg PUBLIC "-//W3C//DTD SVG 20010904//EN"
 "http://www.w3.org/TR/2001/REC-SVG-20010904/DTD/svg10.dtd">
<svg version="1.0" xmlns="http://www.w3.org/2000/svg"
 width="128.000000pt" height="128.000000pt" viewBox="0 0 128.000000 128.000000"
 preserveAspectRatio="xMidYMid meet">
<metadata>
Created by potrace 1.14, written by Peter Selinger 2001-2017
</metadata>
<g transform="translate(0.000000,128.000000) scale(0.100000,-0.100000)"
fill="#000000" stroke="none">
<path d="M303 1036 c-53 -36 -85 -65 -89 -80 -3 -13 -3 -68 0 -122 3 -54 5
-109 5 -121 0 -13 -1 -69 0 -125 0 -57 -1 -134 -2 -173 -4 -198 -3 -206 26
-230 23 -18 51 -24 155 -34 125 -12 185 -18 410 -42 110 -11 114 -11 142 10
16 11 32 21 35 21 13 0 155 151 155 165 0 8 5 15 10 15 15 0 12 29 -4 46 -8 8
-26 14 -40 14 -23 0 -26 4 -26 33 0 17 -6 43 -13 57 -10 20 -10 30 1 52 10 20
12 53 8 120 -6 113 -6 108 0 237 6 116 -2 143 -45 160 -14 5 -136 17 -271 26
-135 8 -274 18 -310 21 l-65 5 -82 -55z m395 -105 c169 -13 226 -21 233 -32
14 -23 11 -195 -4 -207 -9 -8 -96 -4 -307 13 -162 14 -305 25 -317 25 -42 0
-53 25 -53 119 0 55 4 91 12 99 14 14 42 13 436 -17z m-28 -271 c201 -17 247
-24 258 -37 16 -22 16 -173 0 -196 -12 -16 -32 -16 -333 12 -272 25 -321 32
-332 47 -17 24 -18 175 0 193 13 14 -5 14 407 -19z m-37 -265 c146 -14 272
-28 281 -31 23 -9 26 -30 19 -121 -4 -63 -10 -86 -21 -91 -21 -7 -612 48 -634
60 -15 7 -18 24 -18 108 l0 100 53 0 c30 0 174 -11 320 -25z"/>
</g>
</svg>
